# xmcd
#
# Track frame offsets:
#	150
#	13489
#	25875
#	38875
#	60171
#	73041
#	89005
#	103935
#	121206
#	134765
#	151713
#	168439
#	184478
#	199988
#	214912
#	227947
#	243598
#	255263
#
# Disc length: 3605 seconds
#
# Revision: 2
# Processed by: cddbd v1.5.2PL0 Copyright (c) Steve Scherf et al.
# Submitted via: audiograbber 1.82.02
#
DISCID=0a0e1312
DTITLE=Various Artist - Country Radio - February 2012
DYEAR=2012
DGENRE=Country
TTITLE0=Josh Turner - Comin' Around 
TTITLE1=Tim Dugger - Way Past My Beer Time
TTITLE2=Ronnie Dunn - Let The Cowboy Rock
TTITLE3=Brantley Gilbert - You Don't Know Her Like I Do
TTITLE4=Tyler Farr - Hot Mess
TTITLE5=Brad Paisley - Camouflage (Crowdless Mix)
TTITLE6=Tim McGraw - Better Than I Used To Be
TTITLE7=Lady Antebellum - Dancin' Away With My Heart
TTITLE8=Steve Holy - Until The Rain Stops
TTITLE9=Canaan Smith - We Got Us
TTITLE10=Miranda Lambert - Over You
TTITLE11=Eli Young Band - Even If It Breaks Your Heart
TTITLE12=Mandolin Orange - Haste Make
TTITLE13=Josh Turner - Time Is Love
TTITLE14=Matt Linsin - Sorry (PO Clean Edit)
TTITLE15=Blake Shelton - Drink On It
TTITLE16=Sherry Lynn - Breakin' Up Song
TTITLE17=Daniel Warren - Brent Creek
EXTD=
EXTT0=
EXTT1=
EXTT2=
EXTT3=
EXTT4=
EXTT5=
EXTT6=
EXTT7=
EXTT8=
EXTT9=
EXTT10=
EXTT11=
EXTT12=
EXTT13=
EXTT14=
EXTT15=
EXTT16=
EXTT17=
PLAYORDER=
